<?xml version="1.0" encoding="UTF-8" standalone="no"?>
<!DOCTYPE svg PUBLIC "-//W3C//DTD SVG 1.1//EN" "http://www.w3.org/Graphics/SVG/1.1/DTD/svg11.dtd">
<svg width="100%" height="100%" viewBox="0 0 1654 1654" version="1.1" xmlns="http://www.w3.org/2000/svg" xmlns:xlink="http://www.w3.org/1999/xlink" xml:space="preserve" xmlns:serif="http://www.serif.com/" style="fill-rule:evenodd;clip-rule:evenodd;stroke-linejoin:round;stroke-miterlimit:2;">
    <g id="Arrière-plan" transform="matrix(1.620117,0,0,1.620117,-3.076034,98.914061)">
        <path d="M220.472,254.437C221.479,254.347 222.485,254.256 223.492,254.166C262.371,259.754 260.981,260.045 279.43,264.654C290.527,267.426 294.833,221.585 318.572,200.579C327.828,192.388 378.935,222.381 387.735,229.16C388.852,230.021 390.633,231.393 402.383,219.358C417.196,204.187 433.679,192.224 434.429,191.437C452.786,172.153 464.041,190.023 479.355,205.634C493.733,220.291 492.398,222.093 498.659,228.342C504.21,233.884 505.465,229.325 554.434,208.353C594.594,191.153 604.532,270.236 607.478,269.84C632.92,266.418 632.784,266.666 658.498,266.785C660.409,266.794 675.209,266.862 682.289,268.944C706.569,276.083 686.194,343.099 688.393,346.557C696.852,359.858 698.347,358.595 699.07,359.744C723.926,399.296 721.479,400.39 726.972,411.287C727.864,413.056 733.577,424.388 735.835,434.419C738.632,446.84 746.295,432.233 751.104,427.206C755.657,422.446 735.989,411.313 730.277,395.606C714.233,351.486 745.06,334.793 742.346,326.553C736.967,310.224 734.201,311.545 728.467,295.516C714.056,255.229 643.147,118.353 635.24,109.732C634.177,108.573 627.588,101.388 631.377,90.465C634.404,81.74 641.257,61.844 678.509,38.513C751.942,-7.478 826.075,-0.565 841.665,6.112C863.898,15.635 867.438,16.315 868.029,40.508C868.901,76.191 884.666,250.837 885.082,255.558C886.464,271.233 884.611,273.228 895.49,274.831C912.702,277.367 936.729,291.941 941.352,296.663C975.232,331.265 973.208,355.683 977.629,364.434C977.13,366.031 976.993,365.885 977.348,367.448C977.323,368.744 980.211,390.616 976.229,410.437C975.852,412.314 973.177,427.244 969.12,433.28C960.016,446.824 943.351,469.149 944.814,471.63C949.513,479.597 995.381,581.639 1005.697,599.392C1024.93,632.492 1031.535,638.569 1004.83,665.862C1001.305,669.464 970.718,704.111 907.518,716.689C870.355,724.084 831.039,722.385 812.951,704.075C803.445,694.453 802.524,604.234 802.524,604.234C801.975,582.288 797.929,544.479 797.682,540.205C796.927,527.101 777.582,533.217 773.04,534.691C754.438,540.729 744.209,538.962 743.948,543.526C743.25,555.688 713.788,622.253 721.822,628.024C747.49,646.46 777.188,705.888 778.9,720.394C782.799,753.432 758.362,807.429 745.199,818.102C745.199,818.102 743.542,819.587 739.678,819.231C739.678,819.231 734.198,818.981 731.058,814.8C726.802,809.133 730.741,800.041 727.843,782.46C723.588,756.647 719.738,753.041 718.554,751.381C713.697,750.901 689.58,834.167 670.747,823.181C668.871,822.087 671.297,789.338 667.703,779.423C658.53,754.118 661.34,751.712 638.883,730.042C629.392,720.883 627.728,726.436 616.557,733.58C611.636,736.727 548.715,766.618 548.515,766.705C499.551,784.113 443.725,783.987 434.5,783.966C408.142,783.906 361.52,779.367 358.09,779.241C355.649,779.151 344.781,798.583 342.465,805.481C338.743,816.566 333.977,836.199 333.964,841.505C333.952,841.527 331.997,876.975 331.959,880.515C331.91,885.178 325.609,888.858 323.512,888.92C312.532,889.242 290.039,835.373 283.32,812.547C280.02,801.334 272.72,824.086 270.637,828.572C258.209,855.333 260.335,890.794 250.506,896.511C242.983,900.886 234.984,885.032 234.679,883.418C227.514,845.552 227.038,845.72 210.417,850.222C206.521,851.277 188.969,856.032 160.495,857.484C156.7,856.42 153.93,857.572 153.406,857.79C147.677,857.166 106.892,852.727 84.642,836.343C57.882,816.638 44.278,813.858 18.318,766.602C13.802,758.382 14.819,758.128 11.288,749.59C-0.549,720.969 1.583,684.208 3.085,676.442C5.902,661.871 -6.626,599.627 49.501,547.501C86.752,512.906 119.614,512.674 114.674,506.371C109.809,500.164 109.148,500.983 104.1,494.815C75.97,460.445 81.32,456.14 87.109,450.087C110.059,426.084 116.813,426.811 123.293,422.208C140.09,410.277 144.379,411.096 141.495,405.503C140.953,404.453 135.399,393.681 134.937,392.273C119.023,343.735 121.825,338.82 135.342,334.114C150.392,328.874 195.239,328.279 200.47,328.209C204.812,328.151 202.11,258.878 220.472,254.437ZM216.034,801.5C214.847,824.84 217.859,826.467 206.791,818.087C177.18,795.671 120.475,713.086 164.457,735.577C186.151,746.67 186.674,745.849 205.271,761.743C224.814,778.445 216.93,783.885 216.034,801.5Z" style="fill-opacity:1;"/>
        <path d="M424.738,249.243C424.738,249.243 415.381,247.469 405.501,247.496C402.272,247.505 403.907,244.36 433.091,218.048C447.426,205.124 449.524,203.236 455.616,209.399C477.131,231.162 488.085,247.961 486.359,248.033C477.039,248.42 467.206,249.962 466.233,250.11C452.209,251.418 477.156,252.988 478.564,253.178C496.956,255.657 497.055,255.522 515.526,259.391C528.262,262.059 542.795,269.305 531.811,262.294C522.74,256.504 523.122,256.15 513.382,251.619C508.522,249.358 573.08,219.378 575.778,225.342C578.546,231.46 590.535,283.711 584.527,281.666C582.625,281.018 582.034,280.133 571.444,276.702C517.235,259.138 589.334,279.329 633.123,315.918C741.957,406.857 727.223,526.421 724.325,541.411C723.4,541.077 722.767,538.819 721.708,541.5C662.537,691.193 454.652,743.996 300.647,679.102C208.552,640.294 177.887,578.35 176.388,575.362C197.675,556.675 93.713,587.477 106.057,616.684C115.742,639.601 171.509,613.637 215.352,656.641C241.158,681.952 259.763,740.372 246.151,776.295C245.327,778.47 242.834,775.135 239.3,770.674C201.365,728.235 197.014,733.44 167.445,715.591C166.444,714.987 140.791,707.116 132.228,714.156C128.594,717.144 116.403,727.168 144.11,771.752C160.461,798.063 160.395,798.001 181.574,820.442C193.908,832.177 194.828,833.072 193.44,833.194C175.727,834.749 134.788,850.316 74.746,805.149C48.794,785.627 26.027,745.792 23.197,717.548C20.296,688.588 23.866,688.627 22.986,659.487C22.343,638.202 34.141,591.332 45.091,582.093C46.952,580.523 45.575,579.286 65.601,559.598C77.451,547.948 117.741,523.24 154.402,522.249C161.202,522.065 149.693,520.312 127.209,490.769C127.11,490.639 119.296,483.571 104.996,462.201C103.353,459.745 129.91,435.687 162.497,424.494C176.852,419.564 157.372,396.066 154.348,385.563C146.706,359.024 137.768,352.211 151.531,350.865C206.088,345.529 206.506,353.072 214.379,350.08C218.56,348.492 222.862,342.986 222.929,340.554C223.076,335.248 224.763,274.137 228.5,274.448C230.677,274.629 230.481,275.309 255.436,278.906C279.411,282.361 293.16,299.224 301.57,276.529C308.725,257.217 324.445,219.837 328.375,220.941C329.792,221.339 368.175,235.551 385.174,253.493C383.936,254.156 382.698,254.819 381.46,255.482C379.754,256.335 378.07,256.104 379.668,257.262L390.227,254.439C402.483,250.934 423.077,251.412 423.48,251.409C429.871,251.736 430.004,252.022 430.411,251.426C430.685,251.025 424.738,249.243 424.738,249.243Z" style="fill:rgb(242,138,40);"/>
        <path d="M795.657,328.586C795.741,328.758 795.765,330.587 797.501,330.386C809.122,329.041 799.106,336.448 796.804,352.554C795.977,358.341 787.085,353.213 785.958,357.582C784.395,363.638 788.288,361.252 794.491,360.745C797.031,360.537 792.086,385.99 799.919,396.175C807.823,406.452 821.542,397.866 821.625,397.838C845.54,389.642 845.888,390.136 865.432,392.85C885.559,395.645 863.063,398.697 862.541,398.768C856.796,399.547 852.711,407.191 850.503,407.511C848.33,407.825 844.169,396.647 843.468,406.497C843.376,407.787 843.51,422.397 859.637,406.651C863.756,402.63 870.581,405.717 875.289,401.25C878.68,398.033 879.294,397.416 889.672,401.043C901.311,405.111 899.032,407.848 903.281,419.589C945.684,536.759 992.6,613.179 987.581,607.064C984.592,603.422 978.439,602.966 978.412,602.965C927.823,599.972 892.076,611.756 861.203,631.017C825.648,653.198 823.76,672.894 823.475,659.503C823.437,657.684 817.895,586.981 813.893,561.439C804.314,500.307 804.435,429.1 755.961,314.311C706.877,198.078 665.955,128.833 661.549,120.484C659.726,117.03 678.879,124.073 693.502,124.028C712.908,123.967 740.068,120.925 764.522,112.566C793.004,102.83 819.34,91.2 849.317,61.267C854.014,56.578 851.082,64.348 855.855,125.471C864.491,236.046 875.517,273.936 864.479,276.414C853.626,278.85 852.103,282.444 846.573,281.272C837.727,279.396 837.351,289.219 836.128,290.129C815.231,305.678 808.599,321.234 806.351,324.362C803.842,327.854 801.003,322.633 795.657,328.586Z" style="fill:rgb(228,209,177);"/>
        <path d="M724.325,541.411C723.487,543.097 707.955,603.64 697.297,623.379C694.165,629.18 638.862,718.297 545.347,750.084C395.086,801.159 288.745,728.621 272.499,718.501C259.081,710.142 272.377,699.365 239.645,652.4C229.606,637.995 200.988,617.136 179.457,613.935C134.139,607.195 115.423,616.086 127.019,602.127C139.468,587.141 163.07,578.956 166.583,577.737C171.485,576.037 171.542,577.016 176.388,575.362C177.887,578.35 208.552,640.294 300.647,679.102C454.652,743.996 662.537,691.193 721.708,541.5C722.767,538.819 723.4,541.077 724.325,541.411Z" style="fill:rgb(202,98,8);"/>
        <path d="M880.34,376.831C861.432,370.297 848.24,365.417 817.557,377.645C810.972,380.27 815.365,360.051 815.691,358.551C833.789,275.254 923.53,273.745 952.147,346.651C973.597,401.301 937.775,453.814 934.484,451.522C930.641,448.846 918.334,410.225 917.164,406.552C915.502,401.337 920.415,407.359 925.238,405.137C929.094,403.359 928.663,397.183 880.34,376.831Z" style="fill:rgb(230,127,32);"/>
        <path d="M852.162,567.495C851.28,563.423 844.473,560.651 841.769,555.334C833.379,538.834 815.383,540.003 823.45,517.483C831.053,496.258 816.808,479.606 845.53,474.727C859.828,472.298 867.739,451.187 886.297,462.855C911.791,478.882 913.326,476.055 915.288,477.773C927.431,488.408 924.647,502.309 924.766,505.482C925.18,516.567 938.148,527.256 921.248,541.199C916.46,545.149 929.576,554.147 943.44,571.55C951.231,581.33 927.546,577.142 925.421,577.078C922.257,576.983 924.729,593.433 921.346,596.298C919.246,598.077 917.212,598.582 896.424,572.566C889.331,563.69 889.444,574.582 885.954,601.566C883.694,619.043 875.201,604.293 871.279,598.665C865.002,589.658 858.302,605.87 852.499,605.527C849.461,605.348 847.858,604.042 852.162,567.495Z" style="fill:rgb(12,7,4);"/>
        <path d="M367.499,379.457C428.733,380.619 432.854,461.223 411.037,492.139C366.898,554.691 293.288,482.386 324.999,412.73C339.37,381.162 363.252,380.237 367.499,379.457Z" style="fill:rgb(4,2,2);"/>
        <path d="M576.899,521.438C580.952,583.019 499.077,634.52 436.426,583.589C406.523,559.279 408.344,528.55 413.412,526.34C433.567,517.548 475.197,561.045 542.268,519.18C553.767,512.003 569.065,496.622 576.899,521.438Z" style="fill:rgb(6,2,1);"/>
        <path d="M548.277,383.34C548.277,383.34 557.486,369.003 569.533,364.586C618.316,346.696 649.585,414.648 631.61,456.542C600.369,529.357 504.779,466.01 548.277,383.34Z" style="fill:rgb(4,2,2);"/>
        <path d="M869.574,468.686C882.792,464.525 886.476,472.171 892.719,476.134C898.227,479.631 903.407,479.574 907.306,481.84C918.508,488.351 916.183,496.967 916.437,504.502C916.901,518.305 928.863,525.501 915.292,536.228C907.02,542.766 907.505,543.122 902.119,552.263C891.926,569.562 880.369,556.468 869.488,557.385C855.274,558.582 853.47,559.036 846.159,546.696C838.291,533.415 824.991,537.273 831.04,520.346C838.354,499.877 824.111,486.694 846.513,481.554C859.512,478.572 857.375,474.383 869.574,468.686Z" style="fill:rgb(197,149,58);"/>
        <path d="M850.039,30.509C847.419,45.904 824.265,68.151 822.833,63.386C818.027,47.4 820.054,32.043 795.488,31.859C737.378,31.425 692.265,64.958 694.808,78.458C698.362,97.328 710.664,109.639 705.582,109.821C665.552,111.249 647.032,98.487 648.816,93.614C669.423,37.351 811.038,-1.095 849.38,28.615C849.507,28.713 849.38,28.615 850.039,30.509Z" style="fill:rgb(190,167,133);"/>
        <path d="M911.47,687.059C927.07,681.441 928.846,683.372 952.735,669.894C982.681,652.998 971.798,641.466 962.966,620.299C959.304,611.521 1006.562,624.736 1004.434,634.488C994.234,681.242 867.208,725.36 826.585,693.393C820.737,688.792 837.923,666.654 848.908,656.995C855.479,651.218 854.761,658.071 857.262,668.564C861.575,686.66 863.783,695.877 911.47,687.059Z" style="fill:rgb(191,167,132);"/>
        <path d="M905.733,498.399C926.98,552.819 849.429,568.225 841.41,519.511C836.556,490.017 880.975,459.574 905.733,498.399Z" style="fill:rgb(14,7,2);"/>
        <path d="M720.681,651.005C736.649,665.154 737.309,664.507 748.441,682.548C775.71,726.741 759.258,756.947 752.683,776.567C748.316,789.598 748.678,751.705 727.349,719.608C725.434,716.726 711.159,695.243 699.376,686.619C702.242,682.65 719.699,660.558 720.681,651.005Z" style="fill:rgb(243,138,42);"/>
        <path d="M512.491,563.707C515.142,564.171 549.147,570.122 544.112,575.199C498.546,621.149 434.421,578.063 441.666,573.757C455.977,565.25 480.999,563.188 484.524,562.897C486.755,562.714 498.017,561.785 512.491,563.707Z" style="fill:rgb(235,118,12);"/>
        <path d="M875.494,487.088C912.883,490.994 906.011,527.08 892.237,537.118C854.931,564.304 822.773,493.113 875.494,487.088Z" style="fill:rgb(176,124,29);"/>
        <path d="M794.497,42.948C796.012,43.114 809.976,41.548 799.146,51.089C769.428,77.272 693.388,85.912 710.625,71.636C744.428,43.641 787.407,43.047 794.497,42.948Z" style="fill:rgb(190,167,132);"/>
        <path d="M757.41,100.051C747.038,103.478 720.298,110.191 718.803,107.323C710.109,90.645 710.906,89.181 712.445,89.161C745.955,88.737 746.167,89.227 777.518,77.534C788.239,73.536 809.861,57.928 810.004,58.736C812.499,72.893 812.843,73.256 811.797,73.886C789.75,87.168 790.739,89.02 757.41,100.051Z" style="fill:rgb(228,209,177);"/>
        <path d="M752.35,454.326C776.203,434.025 773.387,427.97 774.84,430.175C775.763,431.575 785.552,482.243 787.812,505.451C787.846,505.803 788.911,510.109 789.011,510.513C786.293,507.915 786.222,508.124 782.614,507.078C765.859,502.22 752.766,474.832 754.237,456.444C754.237,456.444 752.501,454.496 752.35,454.326Z" style="fill:rgb(240,138,42);"/>
        <g transform="matrix(0.617239,0,0,0.697752,-262.943942,-261.666869)">
            <ellipse cx="1023.284" cy="982" rx="33.82" ry="34" style="fill:white;"/>
        </g>
        <path d="M882.499,678.946C880.498,678.737 878.467,679.014 876.467,678.805C862.893,677.383 891.848,656.886 923.411,649.172C935.947,646.108 970.309,641.543 958.153,652.164C928.651,677.943 888.918,678.807 882.499,678.946Z" style="fill:rgb(191,167,131);"/>
        <path d="M933.557,618.953C944.628,617.764 944.556,617.768 945.513,617.668C951.266,617.072 955.789,634.332 954.461,634.344C943.823,634.435 943.932,633.895 933.535,635.657C891.109,642.845 875.726,658.196 869.524,662.562C866.893,664.414 864.624,649.02 864.482,647.501C864.395,646.566 888.883,626.957 933.557,618.953Z" style="fill:rgb(227,208,176);"/>
        <path d="M644.499,286.963C662.319,286.954 672.916,285.967 672.924,289.483C673.009,329.633 670.103,332.515 667.794,330.182C628.453,290.435 594.957,290.133 609.604,288.949C632.717,287.079 641.703,286.99 644.499,286.963Z" style="fill:rgb(243,140,46);"/>
        <path d="M752.35,454.326C752.501,454.496 754.237,456.444 754.237,456.444C752.766,474.832 765.859,502.22 782.614,507.078C786.222,508.124 786.293,507.915 789.011,510.513C787.44,523.889 748.184,523.627 747.494,520.502C745.58,511.83 750.003,494.46 743.274,464.545C742.206,459.794 746.799,458.403 752.35,454.326Z" style="fill:rgb(202,98,9);"/>
        <g transform="matrix(0.546422,0,0,0.672316,19.248875,-258.090486)">
            <ellipse cx="1023.284" cy="982" rx="33.82" ry="34" style="fill:white;"/>
        </g>
        <path d="M685.635,702.361C704.289,718.94 692.679,779.566 689.542,772.466C688.681,770.517 684.894,746.897 664.46,723.523C673.005,719.715 684.525,705.537 685.635,702.361Z" style="fill:rgb(242,138,44);"/>
        <path d="M308.077,778.039C311.887,783.735 318.493,782.809 326.811,788.612C310.957,825.491 314.528,839.592 312.536,839.74C308.663,840.029 305.601,822.162 305.324,820.545C301.262,796.84 298.086,786.004 308.077,778.039Z" style="fill:rgb(243,140,46);"/>
        <path d="M271.065,759.391C272.226,760.201 273.081,760.797 285.995,768.875C254.409,799.252 249.183,827.14 243.242,845.448C242.981,845.75 242.72,846.052 242.459,846.354C237.971,840.93 232.228,794.358 236.677,803.236C241.765,813.387 261.072,817.794 271.065,759.391Z" style="fill:rgb(239,141,51);"/>
        <path d="M893.584,300.152C919.255,310.313 875.977,304.521 850.825,322.978C849.75,323.767 832.199,339.334 836.568,327.519C842.012,312.797 860.093,304.144 862.683,302.905C875.12,296.953 891.139,299.729 893.584,300.152Z" style="fill:rgb(246,167,89);"/>
        <path d="M708.562,643.556L709.505,643.628C710.573,643.548 710.795,643.532 720.681,651.005C719.699,660.558 702.242,682.65 699.376,686.619C690.374,677.929 681.014,677.713 690.154,669.14C691.667,667.721 706.84,646.362 708.562,643.556Z" style="fill:rgb(201,99,10);"/>
        <path d="M750.567,205.829C749.753,205.971 711.195,212.69 740.504,203.512C784.325,189.79 783.969,189.105 827.576,174.734C828.688,174.368 860.984,163.724 842.208,175.053C840.727,175.946 810.91,190.491 750.567,205.829Z" style="fill:rgb(11,10,6);"/>
        <path d="M857.934,576.539C858.159,574.863 858.212,573.167 858.437,571.491C859.859,560.898 879.04,566.575 882.517,568.479C884.662,569.654 880.5,595.078 880.126,597.367C879.633,600.38 878.623,597.44 873.113,590.856C867.171,583.757 862.125,590.8 858.227,594.04C856.094,595.813 856.31,593.048 857.934,576.539Z" style="fill:rgb(179,130,41);"/>
        <path d="M752.132,177.479C743.471,213.34 716.538,158.745 736.555,153.853C740.538,152.88 745.435,157.367 746.044,157.925C751.325,162.762 752.042,175.843 752.132,177.479Z" style="fill:rgb(16,13,9);"/>
        <path d="M747.519,373.5C747.572,371.798 748.102,354.773 751.545,352.6C753.326,351.476 759.141,369.893 759.635,371.459C770.643,406.329 771.435,409.104 768.509,408.307C748.867,402.961 747.667,376.748 747.519,373.5Z" style="fill:rgb(214,115,26);"/>
        <path d="M685.635,702.361C684.525,705.537 673.005,719.715 664.46,723.523C658.579,716.77 659.456,715.973 651.658,711.288C649.841,710.197 670.63,688.863 674.27,691.83C676.525,693.668 684.738,701.505 685.635,702.361Z" style="fill:rgb(201,97,8);"/>
        <path d="M934.257,572.004C922.123,570.694 917.913,569.356 917.267,581.465C917.245,581.875 916.931,587.765 915.61,586.319C914.234,584.813 898.566,567.663 900.677,565.646C907.816,558.823 907.03,558.385 911.958,549.789C914.438,545.463 918.934,552.477 922.03,555.947C934.589,570.026 934.524,570.411 934.257,572.004Z" style="fill:rgb(183,133,43);"/>
        <path d="M271.065,759.391C271.811,739.347 271.915,738.039 273.327,738.891C283.71,745.157 283.252,745.684 295.348,750.831C302.418,753.839 299.938,756.141 299.524,756.525C298.45,757.522 292.784,762.783 285.995,768.875C273.081,760.797 272.226,760.201 271.065,759.391Z" style="fill:rgb(202,99,12);"/>
        <path d="M780.508,236.299C774.351,236.534 772.407,240.56 770.078,234.728C767.248,227.641 770.232,243.355 762.5,242.676C756.735,242.169 758.172,247.336 752.47,246.818C746.796,246.302 746.876,246.898 746.393,246.846C745.482,246.747 747.404,215.243 754.33,220.742C758.926,224.391 751.923,238.754 751.746,239.524C748.809,252.309 758.376,234.284 758.718,233.639C760.055,231.12 765.696,231.569 766.264,231.173C766.72,230.855 772.057,227.133 773.205,231.57C775.23,239.394 776.941,229.734 777.002,229.389C777.742,225.208 783.371,225.942 782.502,229.5C780.108,239.309 785.429,228.759 785.544,228.531C786.991,225.662 791.187,226.803 791.557,226.67C802.47,222.748 802.446,226.582 802.014,227.3C801.993,227.334 780.779,236.254 780.508,236.299Z" style="fill:rgb(19,15,10);"/>
        <path d="M763.127,172.597C765.326,183.717 763.375,183.912 762.474,183.858C758.883,183.643 746.55,143.635 756.157,151.951C765.783,160.284 773.703,173.578 769.368,161.541C764.126,146.984 768.756,146.486 769.697,147.149C770.731,147.877 795.067,203.875 762.421,165.613C757.752,160.141 762.904,172.082 763.127,172.597Z" style="fill:rgb(9,8,5);"/>
        <path d="M801.156,157.617C800.849,156.571 798.043,147.019 797.477,144.505C793.642,127.456 820.324,133.123 812.035,149.239C808.351,156.403 819.628,154.936 821.53,160.489C824.133,168.089 811.355,158.818 810.636,158.296C803.229,152.921 809.289,162.988 809.155,167.498C808.769,180.479 801.477,158.582 801.156,157.617Z" style="fill:rgb(16,13,9);"/>
        <path d="M308.077,778.039C323.976,764.174 325.316,764.491 334.591,767.229C342.35,769.52 333.976,774.363 326.811,788.612C318.493,782.809 311.887,783.735 308.077,778.039Z" style="fill:rgb(202,97,10);"/>
        <path d="M832.59,136.431C833.513,137.915 847.086,159.751 839.617,157.112C837.655,156.419 834.913,145.715 828.828,151.843C828.763,151.908 827.515,171.919 824.257,160.579C821.914,152.423 820.27,131.524 821.929,128.801C822.474,127.905 824.397,125.591 832.59,136.431Z" style="fill:rgb(14,11,8);"/>
        <path d="M780.584,289.848C776.117,289.698 775.307,284.913 772.919,288.807C763.892,303.531 761.082,284.709 766.582,281.723C770.255,279.73 764.663,292.607 768.433,289.373C771.574,286.679 771.644,274.012 777.99,284.087C780.298,287.751 782.294,274.395 791.515,275.096C802.388,275.923 801.963,273.704 812.593,271.776C813.002,271.701 819.963,266.552 819.874,270.498C819.732,276.845 799.559,281.172 795.49,280.821C788.887,280.252 788.394,280.646 785.09,286.249C783.573,288.822 783.283,288.341 780.584,289.848Z" style="fill:rgb(17,14,9);"/>
        <path d="M716.246,192.927C714.25,191.168 699.631,178.283 709.341,160.394C713.629,152.496 727.021,161.174 718.527,161.811C707.07,162.671 713.103,185.578 721.492,189.525C724.943,191.148 733.837,178.55 731.751,187.539C729.198,198.542 717.45,193.449 716.246,192.927Z" style="fill:rgb(15,13,9);"/>
        <path d="M813.445,438.28C818.136,437.82 818.615,423.896 827.63,431.322C831.248,434.303 837.599,422.786 844.502,422.539C854.37,422.187 853.893,420.42 863.525,418.746C870.318,417.565 863.78,428.348 850.5,428.391C841.891,428.418 841.805,428.828 835.422,434.406C826.933,441.824 824.762,432.084 821.825,434.845C816.709,439.654 816.3,444.684 811.809,439.33C809.679,436.79 813.301,438.223 813.445,438.28Z" style="fill:rgb(17,14,10);"/>
        <path d="M789.843,155.413C792.167,163.891 797.354,176.377 791.453,174.638C787.223,173.392 783.743,147.516 780.513,147.912C757.986,150.675 794.242,133.481 793.449,141.494C793.081,145.219 785.768,143.47 787.522,148.494C788.78,152.097 788.675,151.931 789.843,155.413Z" style="fill:rgb(16,12,9);"/>
        <path d="M843.438,447.241C850.524,445.995 850.686,446.89 856.787,442.954C864.234,438.15 862.044,449.505 853.378,451.066C838.521,453.742 838.812,454.91 837.505,454.905C824.046,454.853 821.08,464.386 816.891,458.273C816.36,457.499 816.895,457.327 826.649,451.762C834.358,447.363 835.215,450.596 843.438,447.241Z" style="fill:rgb(22,18,12);"/>
        <path d="M850.918,144.424C851.063,145.025 854.146,157.853 848.295,151.7C845.74,149.012 841.235,126.175 839.501,126.483C816.623,130.546 849.246,111.761 850.533,118.493C851.076,121.333 844.04,123.143 844.813,125.431C848.035,134.962 848.012,134.733 850.918,144.424Z" style="fill:rgb(15,12,9);"/>
        <path d="M745.894,180.619C737.992,192.542 727.403,151.296 741.169,160.91C747.304,165.195 746.042,179.005 745.894,180.619Z" style="fill:rgb(226,209,179);"/>
        <path d="M837.843,263.193C842.813,260.184 841.167,256.599 846.51,257.394C852.051,258.219 850.781,255.008 855.548,252.673C859.981,250.502 863.02,263.044 845.463,263.282C843.64,263.307 840.277,275.037 834.317,266.645C832.846,264.573 831.252,268.644 830.532,268.707C827.454,268.977 832.422,250.887 837.843,263.193Z" style="fill:rgb(18,15,11);"/>
        <path d="M843.56,212.747C837.429,213.31 837.558,213.787 833.301,218.276C829.157,222.646 824.218,216.588 822.455,219.467C812.399,235.897 812.133,215.498 814.426,215.232C816.417,215.001 815.575,222.894 817.217,220.212C820.985,214.061 821.203,211.734 828.448,214.637C833.96,216.845 833.597,204.055 844.5,210.85C844.187,211.482 843.873,212.114 843.56,212.747Z" style="fill:rgb(20,16,12);"/>
        <path d="M758.112,264.852C752.425,266.802 757.323,256.674 760.184,260.722C764.792,267.242 765.073,256.514 770.516,257.272C778.546,258.391 780.851,256.426 786.645,253.965C794.953,250.437 787.378,264.561 770.561,261.202C767.117,260.514 764.978,273.671 758.112,264.852Z" style="fill:rgb(24,19,13);"/>
        <path d="M809.658,244.883C817.839,244.291 824.901,241.215 826.318,241.958C834.267,246.126 810.655,249.342 809.725,250.655C800.965,263.026 797.721,247.141 802.646,243.799C806.392,241.257 804.448,249.048 804.709,249.344C805.062,249.744 805.216,249.452 809.658,244.883Z" style="fill:rgb(14,11,7);"/>
        <path d="M799.417,302.299C804.986,299.502 804.937,299.491 805.432,299.278C811.165,296.812 807.701,309.147 791.583,306.095C785.64,304.97 787.828,315.007 778.411,311.78C775.633,310.828 772.575,318.059 771.956,313.437C771.002,306.321 782.767,308.491 783.123,308.083C789.119,301.203 790.38,303.74 799.417,302.299Z" style="fill:rgb(23,18,13);"/>
        <path d="M830.173,416.184C821.543,423.003 819.149,415.971 809.456,421.404C802.102,425.526 808.255,413.765 817.498,413.925C818.841,413.948 820.176,414.137 821.518,414.181C828.289,414.4 834.688,407.359 832.5,412.5C832.5,412.5 830.359,415.89 830.173,416.184Z" style="fill:rgb(24,20,13);"/>
        <path d="M887.658,416.635C874.276,424.423 873.299,419.584 873.713,418.537C875.121,414.976 892.554,408.39 887.658,416.635Z" style="fill:rgb(19,15,10);"/>
        <path d="M787.286,331.44C788.06,332.313 788.834,333.186 789.608,334.059C789.062,334.675 778.753,346.302 779.644,331.508C780.079,324.289 783.451,324.819 783.603,326.464C784.318,334.19 784.141,334.17 784.566,334.42C786.077,335.306 785.699,334.14 787.286,331.44Z" style="fill:rgb(29,23,15);"/>
        <path d="M805.554,139.192C814.218,144.138 804.751,149.23 804.42,148.594C801.375,142.739 799.084,139.788 805.554,139.192Z" style="fill:rgb(226,208,180);"/>
        <path d="M843.56,212.747C843.873,212.114 844.187,211.482 844.5,210.85C849.418,203.366 853.301,202.52 852.884,205.489C851.613,214.537 844.153,212.719 843.56,212.747Z" style="fill:rgb(23,20,13);"/>
        <path d="M838.483,240.762C832.478,238.184 838.745,237.468 844.508,234.523C846.106,233.707 848.757,239.345 838.483,240.762Z" style="fill:rgb(21,15,9);"/>
        <path d="M793.41,329.791C795.08,331.336 797.958,339.361 789.608,334.059C788.834,333.186 788.06,332.313 787.286,331.44C788.248,329.198 788.459,326.476 793.41,329.791Z" style="fill:rgb(22,18,13);"/>
        <path d="M825.644,291.682C835.722,288.437 826.98,296.011 823.514,296.879C814.114,299.231 825.268,291.928 825.644,291.682Z" style="fill:rgb(24,19,13);"/>
        <path d="M830.115,142.707C832.017,149.584 827.535,145.83 827.443,145.533C827.351,145.236 824.059,129.847 830.115,142.707Z" style="fill:rgb(203,190,170);"/>
        <path d="M882.427,439.325C876.193,440.374 880.263,436.779 880.59,436.684C883.153,435.943 885.316,437.414 882.427,439.325Z" style="fill:rgb(34,24,15);"/>
        <path d="M750.607,229.508C751.523,224.888 752.277,225.109 752.589,225.311C753.254,225.741 752.525,230.069 752.457,230.477C751.84,230.154 751.223,229.831 750.607,229.508Z" style="fill:rgb(171,163,148);"/>
        <path d="M750.607,229.508C751.223,229.831 751.84,230.154 752.457,230.477C751.787,231.941 752.054,231.862 751.374,233.35C749.543,237.356 749.096,232.564 750.607,229.508Z" style="fill:rgb(99,95,84);"/>
        <path d="M153.406,857.79C153.93,857.572 156.7,856.42 160.495,857.484C156.973,858.659 157.096,857.947 153.406,857.79Z" style="fill:rgb(57,57,57);fill-opacity:0.76;"/>
        <path d="M762.518,239.151C761.473,237.66 760.596,236.819 762.509,236.723C762.703,236.714 766.769,236.816 762.518,239.151Z" style="fill:rgb(156,147,135);"/>
        <path d="M851.113,233.377C848.297,234.789 849.547,231.417 850.376,231.83C850.498,231.892 850.376,231.83 851.113,233.377Z" style="fill:rgb(113,93,65);"/>
        <path d="M892.929,434.22C892.976,434.09 893.527,432.59 893.527,432.59C893.686,432.511 897.552,434.987 892.929,434.22Z" style="fill:rgb(22,18,12);"/>
        <path d="M977.629,364.434C977.535,365.439 977.442,366.443 977.348,367.448C976.993,365.885 977.13,366.031 977.629,364.434Z" style="fill:rgb(59,60,59);fill-opacity:0.7;"/>
        <path d="M548.515,766.705C548.715,766.618 548.624,766.924 551.166,766.069C549.908,766.788 550.036,766.99 548.515,766.705Z" style="fill:rgb(61,61,61);fill-opacity:0.45;"/>
        <path d="M220.472,254.437C222.123,253.919 221.918,253.876 223.492,254.166C222.485,254.256 221.479,254.347 220.472,254.437Z" style="fill:rgb(51,51,51);fill-opacity:0.65;"/>
        <path d="M466.233,250.11C467.206,249.962 467.029,249.947 468.197,250.059L466.233,250.11Z" style="fill:rgb(183,99,35);"/>
    </g>
</svg>
